# xmcd CD database file
#
# Track frame offsets:
#	150
#	13353
#	28101
#	42234
#	55853
#	68783
#	83656
#	98155
#	112039
#	124768
#	138859
#	153933
#	164216
#	179396
#	193621
#	206082
#
# Disc length: 2926 seconds
#
# Revision: 0
# Processed by: cddbd v1.5.1PL0 Copyright (c) Steve Scherf et al.
# Submitted via: CDex 1.51
#
DISCID=e20b6c10
DTITLE=Billie Holiday - Grandes Exitos
DYEAR=1942
DGENRE=Jazz
TTITLE0=St. Louis Blues
TTITLE1=Solitude
TTITLE2=The Man I Love
TTITLE3=Body And Soul
TTITLE4=Falling In Love Again, Can't Help It
TTITLE5=I Cried For You
TTITLE6=Fine And Mellow
TTITLE7=My Man
TTITLE8=That's Sugar Baby O'Mine
TTITLE9=Carelessly
TTITLE10=Georgia On My Hand
TTITLE11=Romance In The Dark
TTITLE12=Love Me Or Leave Me
TTITLE13=Jim
TTITLE14=Hello My Darling
TTITLE15=You're Gonna See A Lot Of Me
EXTD=YEAR: 1942
EXTT0=
EXTT1=
EXTT2=
EXTT3=
EXTT4=
EXTT5=
EXTT6=
EXTT7=
EXTT8=
EXTT9=
EXTT10=
EXTT11=
EXTT12=
EXTT13=
EXTT14=
EXTT15=
PLAYORDER=
